<?xml version="1.0" encoding="iso-8859-1"?>
<!-- Generator: Adobe Illustrator 19.0.0, SVG Export Plug-In . SVG Version: 6.00 Build 0)  -->
<svg version="1.1" id="Capa_1" xmlns="http://www.w3.org/2000/svg" xmlns:xlink="http://www.w3.org/1999/xlink" x="0px" y="0px"
	 viewBox="0 0 512 512" style="enable-background:new 0 0 512 512;" xml:space="preserve">
<circle style="fill:#FF00C3;" cx="256" cy="256" r="256"/>
<path style="fill:#D80EB2;" d="M512,256c0-16.414-1.564-32.461-4.516-48.016L426.25,126.75l-2.525,10.174l-54.659-54.659
	L85.75,385.25l122.235,122.234C223.539,510.437,239.586,512,256,512C397.385,512,512,397.385,512,256z"/>
<rect x="85.75" y="126.75" style="fill:#FFFFFF;" width="340.5" height="258.5"/>
<rect x="85.75" y="255.31" style="fill:#F0F0F0;" width="340.5" height="129.94"/>
<rect x="255.5" y="126.75" style="fill:#EBEBF0;" width="170.75" height="258.5"/>
<rect x="255.5" y="255.31" style="fill:#D2D2D7;" width="170.75" height="129.94"/>
<g>
	<rect x="110.5" y="173.75" style="fill:#B9B9BE;" width="120.5" height="44.5"/>
	<rect x="110.5" y="233.75" style="fill:#B9B9BE;" width="120.5" height="14.5"/>
</g>
<g>
	<rect x="110.5" y="263.75" style="fill:#A0A0A5;" width="120.5" height="14.5"/>
	<rect x="110.5" y="293.75" style="fill:#A0A0A5;" width="120.5" height="14.5"/>
	<rect x="110.5" y="323.75" style="fill:#A0A0A5;" width="120.5" height="14.5"/>
</g>
<path style="fill:#FFEC00;" d="M373,323.75l-32.125,47l-30.875-47V92.628C310,83.997,316.997,77,325.628,77h31.744
	C366.003,77,373,83.997,373,92.628V323.75z"/>
<path style="fill:#FFE733;" d="M373,92.628C373,83.997,366.003,77,357.372,77H341v293.567l32-46.817V92.628z"/>
<path style="fill:#FFBC00;" d="M373,92.628C373,83.997,366.003,77,357.372,77h-31.744C316.997,77,310,83.997,310,92.628V121.5h63
	V92.628z"/>
<path style="fill:#FFA426;" d="M373,92.628C373,83.997,366.003,77,357.372,77H341v44.5h32V92.628z"/>
<rect x="310" y="121.5" style="fill:#6861FF;" width="63" height="19.5"/>
<rect x="341" y="121.5" style="fill:#5252D8;" width="32" height="19.5"/>
<polygon style="fill:#FFBC00;" points="327.219,141 327.219,323.75 341.217,370.005 355.781,323.75 355.781,141 "/>
<polygon style="fill:#FFA426;" points="341,141 341,370.022 341.217,370.005 355.781,323.75 355.781,141 "/>
<polygon style="fill:#EDC85F;" points="373,323.75 340.875,370.75 310,323.75 "/>
<polygon style="fill:#E3B954;" points="341,323.75 341,370.567 373,323.75 "/>
<polygon style="fill:#6861FF;" points="360.184,342.5 322.317,342.5 340.875,370.75 "/>
<polygon style="fill:#5252D8;" points="341,342.5 340.875,370.75 360.184,342.5 "/>
<g>
</g>
<g>
</g>
<g>
</g>
<g>
</g>
<g>
</g>
<g>
</g>
<g>
</g>
<g>
</g>
<g>
</g>
<g>
</g>
<g>
</g>
<g>
</g>
<g>
</g>
<g>
</g>
<g>
</g>
</svg>
